<svg xmlns="http://www.w3.org/2000/svg" xmlns:xlink="http://www.w3.org/1999/xlink" id="Ebene_1" x="0" y="0" version="1.1" viewBox="0 0 67.1 63.8" xml:space="preserve" style="enable-background:new 0 0 67.1 63.8"><style type="text/css">.st0{fill:none;stroke:#706f6f;stroke-miterlimit:10}.st1{fill:#706f6f}.st2{stroke-miterlimit:10}.st2,.st3{fill:#706f6f;stroke:#706f6f}.st4{fill:#fff}</style><title>blog</title><g id="Ebene_2"><g id="Ebene_1-2"><path d="M11.1,32.9c0,3.1-1.2,5.7-2.6,5.7H3.2c-1.5,0-2.7-2.6-2.7-5.7v-8.7c0-3.1,1.2-5.7,2.7-5.7h5.3 c1.4,0,2.6,2.5,2.6,5.7L11.1,32.9z" class="st0"/><g><path d="M8.2,20.6c0.3,0.4,0.9,1.6,0.9,3.7v8.7c0,2.1-0.6,3.3-0.9,3.7H3.4c-0.3-0.4-0.9-1.6-0.9-3.7v-8.7 c0-2.1,0.6-3.3,0.9-3.7H8.2 M8.4,18.6H3.2c-1.5,0-2.7,2.5-2.7,5.7v8.7c0,3.1,1.2,5.7,2.7,5.7h5.3c1.4,0,2.6-2.5,2.6-5.7v-8.7 C11.1,21.1,9.9,18.6,8.4,18.6L8.4,18.6z" class="st1"/></g><g><path d="M25.8,38l3.8,20l0.1,0.8l0.6,0.5l1.4,1l0.3,1.6H21.7L17.1,38H25.8 M27.4,36H14.7L20,63.8h14.4l-0.9-4.7 l-2-1.5L27.4,36L27.4,36z" class="st1"/></g><polygon points="30.8 47.9 15.5 47.9 10.2 20.1 25.5 20.1" class="st2"/><path d="M59.8,53.8c0,0-16.5-15.3-54-15.3V18.6c36.6,0,54-16.2,54-16.2L59.8,53.8z" class="st3"/><g><path d="M63.3,55.3c-1.4,0-2.7-0.9-2.7-1.9V2.9c0-0.6,0.4-1,0.7-1.2c0.5-0.4,1.2-0.6,2-0.6C64.8,1,66,1.9,66,2.9 v50.6c0,0.6-0.4,1-0.7,1.2C64.8,55.1,64.1,55.3,63.3,55.3L63.3,55.3z" class="st4"/><path d="M63.3,2c1,0,1.7,0.6,1.7,0.9v50.6c0,0.1-0.1,0.3-0.3,0.4c-0.3,0.3-0.8,0.4-1.4,0.4c-1,0-1.7-0.6-1.7-0.9V2.9 c0-0.1,0.1-0.3,0.3-0.4C62.3,2.2,62.8,2,63.3,2L63.3,2 M63.3,0C63.3,0,63.3,0,63.3,0c-2,0-3.7,1.3-3.7,2.9v50.6c0,0,0,0,0,0 c0,1.6,1.6,2.9,3.7,2.9c0,0,0,0,0,0c2,0,3.7-1.3,3.7-2.9V2.9c0,0,0,0,0,0C67,1.3,65.4,0,63.3,0L63.3,0z" class="st1"/></g></g></g></svg>