<svg xmlns="http://www.w3.org/2000/svg" xmlns:xlink="http://www.w3.org/1999/xlink" id="Ebene_1" x="0" y="0" version="1.1" viewBox="0 0 720 180" xml:space="preserve" style="enable-background:new 0 0 720 180"><style type="text/css">.st0{fill:#706f6f}.st1{fill:url(#SVGID_1_)}.st2{fill:url(#SVGID_2_)}.st3{fill:url(#SVGID_3_)}.st4{fill:url(#SVGID_4_)}.st5{fill:#fff;stroke:#a11a5b;stroke-width:.75;stroke-miterlimit:10}</style><g><g><polygon points="99.7 90.7 80.2 90.7 79.5 87.7 100.5 87.7" class="st0"/><polygon points="98.8 95.5 81.2 95.5 80.5 92.5 99.5 92.5" class="st0"/><polygon points="94.1 102.2 85.9 102.2 84.6 96.9 95.4 96.9" class="st0"/></g><path d="M110.8,39.7C107,32.6,98.4,28,90.6,27.8c-8.3-0.2-17.4,4.5-21.3,11.9c-6.1,11.4-2.7,21,1.4,26.5 c2.8,3.8,5.4,8.3,6,11.1c0.7,3.1,0.6,6,2.5,8.7h21.7c0.9-1.2,1.3-2.3,1.6-3.8c0.3-1.4,0.5-3,0.9-4.9c0.6-2.8,3.2-7.3,6-11.1 C113.5,60.7,116.9,51.1,110.8,39.7z M108.6,60.4c-0.7,1.2-1.4,2.3-2.3,3.3c5.1-9.6,1.2-21.6-8.6-27C89,32,78.5,34,72.5,41 c0-0.1,0.1-0.1,0.1-0.2c5.2-9.6,17.5-13,27.5-7.6C110,38.6,113.9,50.8,108.6,60.4z" class="st0"/></g><g><polygon points="264.2 74.8 262.8 32.3 257.5 32.3 256.2 70.4" class="st0"/><polygon points="283.5 74.8 282.4 38 276.6 38 275.4 70.4" class="st0"/><path d="M289.2,68.9v10.4l-19.3-10.4v10.4l-19.3-10.4v10.4l-19-10.4v32.8h76.8V79.3L289.2,68.9z M255.7,97.8h-18.8V87 h18.8V97.8z M279.4,97.8h-18.8V87h18.8V97.8z M303.1,97.8h-18.8V87h18.8V97.8z" class="st0"/></g><g><g><path d="M435,88.3h-16.5V44h62.9v44.3h-25.9L435,102V88.3L435,88.3z" class="st0"/></g><g><linearGradient id="SVGID_1_" x1="425.547" x2="467.789" y1="54.453" y2="54.453" gradientUnits="userSpaceOnUse"><stop offset="0" style="stop-color:#fff"/><stop offset="1" style="stop-color:#f4f4f5"/></linearGradient><rect width="42.2" height="3.7" x="425.5" y="52.6" class="st1"/><linearGradient id="SVGID_2_" x1="425.547" x2="465.111" y1="62.053" y2="62.053" gradientUnits="userSpaceOnUse"><stop offset="0" style="stop-color:#fff"/><stop offset="1" style="stop-color:#f4f4f5"/></linearGradient><rect width="39.6" height="3.7" x="425.5" y="60.2" class="st2"/><linearGradient id="SVGID_3_" x1="425.547" x2="470.463" y1="69.65" y2="69.65" gradientUnits="userSpaceOnUse"><stop offset="0" style="stop-color:#fff"/><stop offset="1" style="stop-color:#f4f4f5"/></linearGradient><rect width="44.9" height="3.7" x="425.5" y="67.8" class="st3"/><linearGradient id="SVGID_4_" x1="425.547" x2="467.5" y1="77.246" y2="77.246" gradientUnits="userSpaceOnUse"><stop offset="0" style="stop-color:#fff"/><stop offset="1" style="stop-color:#f4f4f5"/></linearGradient><rect width="42" height="3.7" x="425.5" y="75.4" class="st4"/></g></g><polygon points="656.9 29.6 643.6 105.4 622.4 105.4 603.1 68.7 618.5 56.8 630.6 83.9 630.8 85.4 631.1 84.5 641.5 45" class="st5"/></svg>