<svg xmlns="http://www.w3.org/2000/svg" xmlns:svg="http://www.w3.org/2000/svg" id="Ebene_1" width="64" height="64" x="0" y="0" enable-background="new 0 0 64 64" version="1.1" viewBox="0 0 64 64" xml:space="preserve"><metadata id="metadata38"/><g id="g3" transform="translate(0,-10)"><g id="g5"><linearGradient id="SVGID_1_" x1="10.422" x2="54.105" y1="17.206" y2="69.266" gradientUnits="userSpaceOnUse"><stop style="stop-color:#1d1d1b" id="stop8" offset="0"/><stop style="stop-color:#801d18" id="stop10" offset="1"/></linearGradient><polygon id="polygon12" points="63.693 28.999 60.38 64 6.021 63.656 0 25.95" style="fill:url(#SVGID_1_)"/><polygon id="polygon14" points="63.693 28.999 60.38 64 6.021 63.656 0 25.95" style="fill:none;stroke:#66160e;stroke-width:.5;stroke-linecap:square;stroke-linejoin:round"/></g><linearGradient id="SVGID_2_" x1="28.688" x2="28.688" y1="1490.402" y2="1455.601" gradientTransform="matrix(1,0,0,-1,2,1516.293)" gradientUnits="userSpaceOnUse"><stop style="stop-color:#e30613" id="stop17" offset="0"/><stop style="stop-color:#be1622" id="stop19" offset="1"/></linearGradient><polygon id="polygon21" points="61.113 25.891 57.911 60.692 3.468 60.692 .266 25.891" style="fill:url(#SVGID_2_);stroke:#a42423;stroke-width:.5;stroke-linejoin:round"/><linearGradient id="SVGID_3_" x1="30.69" x2="30.69" y1="25.891" y2="18.424" gradientUnits="userSpaceOnUse"><stop style="stop-color:#66160e" id="stop24" offset="0"/><stop style="stop-color:#801d18" id="stop26" offset=".241"/><stop style="stop-color:#a42423" id="stop28" offset=".567"/></linearGradient><path id="path30" d="m 20.514,23.849 0,-3.983 c 0,-0.886 -0.646,-1.442 -1.442,-1.442 l -14.724,0 c -0.796,0 -1.521,0.273 -1.521,1.442 l 0,4.336 -2.562,1.688 60.848,0 -3.202,-2.042 -37.397,0 z" style="fill:url(#SVGID_3_);stroke:#66160e;stroke-width:.5;stroke-linejoin:round"/><polygon id="polygon32" stroke-miterlimit="10" points="30.165 48.221 33.105 35.415 37.457 30.426 33.697 54.995 27.701 54.995 22.229 43.091 26.582 39.252 30.001 48.016 30.084 48.508" style="clip-rule:evenodd;fill:#fff;fill-rule:evenodd;stroke:#a2195b;stroke-width:.75;stroke-miterlimit:10"/></g></svg>